<?xml version="1.0" encoding="UTF-8"?>
<!DOCTYPE svg PUBLIC "-//W3C//DTD SVG 1.1//EN" "http://www.w3.org/Graphics/SVG/1.1/DTD/svg11.dtd">
<svg version="1.1" xmlns="http://www.w3.org/2000/svg" xmlns:xlink="http://www.w3.org/1999/xlink" width="80" height="80"  xml:space="preserve" id="numberbank_inset">
    <!-- Generated by PaintCode - http://www.paintcodeapp.com -->
    <g id="numberbank_inset-group">
        <ellipse id="numberbank_inset-oval" stroke="none" fill="rgb(128, 128, 128)" cx="21.5" cy="72" rx="15.5" ry="16" />
        <ellipse id="numberbank_inset-oval2" stroke="none" fill="rgb(128, 128, 128)" cx="47.25" cy="61.5" rx="26.75" ry="26.5" />
        <ellipse id="numberbank_inset-oval3" stroke="none" fill="rgb(128, 128, 128)" cx="76.25" cy="61.5" rx="21.75" ry="21.5" />
    </g>
    <path id="numberbank_inset-text" stroke="rgb(255, 255, 255)" stroke-width="2" stroke-miterlimit="10" fill="rgb(0, 0, 0)" d="M 40.27,17.7 L 53.48,49.8 53.48,27.6 C 53.48,24.25 52.83,22.58 51.52,22.58 51.17,22.58 50.66,22.66 49.99,22.84 49.31,23.01 48.8,23.1 48.45,23.1 47.4,23.1 46.51,22.63 45.79,21.68 45.06,20.72 44.7,19.55 44.7,18.15 44.7,16.5 45.17,15.18 46.12,14.18 47.08,13.17 48.32,12.68 49.88,12.68 50.68,12.68 52.05,12.8 54,13.05 55.95,13.3 57.67,13.43 59.17,13.43 60.53,13.43 62.1,13.33 63.9,13.12 66.6,12.82 68.27,12.68 68.92,12.68 70.53,12.68 71.82,13.17 72.82,14.18 73.83,15.18 74.33,16.5 74.33,18.15 74.33,19.55 73.93,20.72 73.12,21.68 72.32,22.63 71.35,23.1 70.2,23.1 69.75,23.1 69.15,23.01 68.4,22.84 67.65,22.66 67.08,22.58 66.67,22.58 65.67,22.58 65.03,23.2 64.72,24.45 64.62,24.95 64.58,26 64.57,27.6 L 64.57,58.12 C 64.58,61.43 63.23,63.07 60.52,63.07 60.02,63.07 59.26,63.04 58.24,62.96 57.21,62.89 56.45,62.85 55.95,62.85 55.9,62.85 54.68,62.9 52.27,63 52.27,63 51.73,63 50.62,63 49.17,63 48.1,62.65 47.4,61.95 47,61.55 46.43,60.48 45.67,58.72 L 31.2,25.72 31.2,48.38 C 31.2,51.78 31.85,53.47 33.15,53.47 33.5,53.47 34.04,53.39 34.76,53.21 35.49,53.04 36.02,52.95 36.38,52.95 37.43,52.95 38.31,53.42 39.04,54.38 39.76,55.33 40.12,56.5 40.12,57.9 40.12,61.55 38.38,63.38 34.88,63.38 33.87,63.38 32.23,63.23 29.93,62.93 28.37,62.72 26.83,62.62 25.27,62.62 23.97,62.62 22.23,62.75 20.02,63 17.82,63.25 16.43,63.38 15.82,63.38 12.17,63.38 10.35,61.55 10.35,57.9 10.35,56.5 10.74,55.33 11.51,54.38 12.29,53.42 13.25,52.95 14.4,52.95 14.85,52.95 15.46,53.04 16.24,53.21 17.01,53.39 17.6,53.47 18,53.47 19.35,53.47 20.02,51.78 20.02,48.38 L 20.02,27.6 C 20.02,24.25 19.35,22.58 18,22.58 17.6,22.58 17.01,22.66 16.24,22.84 15.46,23.01 14.85,23.1 14.4,23.1 13.25,23.1 12.29,22.63 11.51,21.68 10.74,20.72 10.35,19.55 10.35,18.15 10.35,16.5 10.85,15.18 11.85,14.18 12.85,13.17 14.15,12.68 15.75,12.68 16.8,12.68 18.32,12.8 20.32,13.05 22.33,13.3 23.9,13.43 25.05,13.43 26,13.43 27.62,13.33 29.93,13.12 30.98,13.07 32.17,12.98 33.52,12.83 34.13,12.72 34.77,12.68 35.47,12.68 36.83,12.68 37.87,13.2 38.62,14.25 38.93,14.65 39.47,15.8 40.27,17.7 Z M 40.27,17.7" />
</svg>
